<svg width="37" height="35" viewBox="0 0 37 35" fill="none" xmlns="http://www.w3.org/2000/svg">
<path d="M33.593 7.1239L33.6193 7.092L26.1137 1.01251L23.7495 3.92841L27.628 7.06949C26.6658 7.65416 25.9019 8.51477 25.4354 9.53944C24.9689 10.5641 24.8215 11.7054 25.0123 12.815C25.2938 14.5019 26.4552 15.9598 27.9582 16.776C29.6376 17.6898 31.1106 17.6054 32.4203 17.1401L32.3921 28.7399C32.3944 29.0506 32.3192 29.357 32.1732 29.6313C32.0273 29.9056 31.8153 30.1392 31.5564 30.3109C31.2974 30.4827 30.9998 30.5872 30.6903 30.6149C30.3808 30.6427 30.0693 30.5928 29.784 30.4699C29.5605 30.3743 29.3578 30.236 29.1873 30.0627C29.0138 29.8889 28.8763 29.6826 28.7826 29.4557C28.6889 29.2287 28.6409 28.9855 28.6412 28.7399L28.6844 24.9871C28.6863 24.2485 28.5418 23.5169 28.2594 22.8344C27.9769 22.152 27.5621 21.5323 27.0388 21.011C26.5161 20.4872 25.8952 20.0715 25.2116 19.7879C24.5281 19.5042 23.7953 19.3581 23.0552 19.358H21.1788V4.34685C21.1788 3.35155 20.7835 2.39702 20.0797 1.69323C19.3759 0.989453 18.4214 0.594072 17.4261 0.594072H4.29135C3.29605 0.594072 2.34152 0.989453 1.63774 1.69323C0.933955 2.39702 0.538574 3.35155 0.538574 4.34685V30.6163C0.538574 31.6116 0.933955 32.5661 1.63774 33.2699C2.34152 33.9737 3.29605 34.3691 4.29135 34.3691H17.4261C18.4214 34.3691 19.3759 33.9737 20.0797 33.2699C20.7835 32.5661 21.1788 31.6116 21.1788 30.6163V23.1107H23.0552C23.3104 23.1107 23.5562 23.1614 23.7889 23.2571C24.2355 23.4526 24.5914 23.8099 24.7853 24.2572C24.8826 24.4882 24.9324 24.7365 24.9316 24.9871L24.8866 28.7399C24.8866 29.5017 25.0348 30.2391 25.3294 30.9315C25.6127 31.6051 26.0199 32.2075 26.5322 32.716C27.053 33.2424 27.6736 33.6597 28.3576 33.9435C29.0415 34.2273 29.7752 34.372 30.5158 34.3691C31.2776 34.3691 32.0131 34.2227 32.7074 33.9262C33.3791 33.6448 33.9833 33.2376 34.4918 32.7235C35.0171 32.2018 35.4337 31.5811 35.7175 30.8973C36.0012 30.2135 36.1465 29.4802 36.1449 28.7399L36.1899 11.8524C36.1881 10.9097 35.9493 9.98267 35.4955 9.15642C35.0417 8.33017 34.3875 7.63125 33.593 7.1239ZM17.4261 9.97601H4.29135V4.34685H17.4261V9.97601ZM30.5608 13.7288C30.0631 13.7288 29.5859 13.5311 29.234 13.1792C28.8821 12.8273 28.6844 12.35 28.6844 11.8524C28.6844 11.3548 28.8821 10.8775 29.234 10.5256C29.5859 10.1737 30.0631 9.97601 30.5608 9.97601C31.0584 9.97601 31.5357 10.1737 31.8876 10.5256C32.2395 10.8775 32.4372 11.3548 32.4372 11.8524C32.4372 12.35 32.2395 12.8273 31.8876 13.1792C31.5357 13.5311 31.0584 13.7288 30.5608 13.7288Z" fill="#242426"/>
</svg>
