<svg width="24" height="32" viewBox="0 0 24 32" fill="none" xmlns="http://www.w3.org/2000/svg">
<path d="M5.34077 25.2247C5.34077 25.2247 0.706543 12.8668 0.706543 6.68783C0.706543 0.50886 3.79603 0.50886 3.79603 0.50886H5.34077C5.34077 0.50886 6.88551 0.50886 6.88551 2.0536C6.88551 3.59835 5.34077 3.59835 5.34077 6.68783C5.34077 9.77732 9.975 12.8668 9.975 17.501C9.975 22.1353 5.34077 25.2247 5.34077 25.2247ZM20.7882 23.68C22.4874 23.68 23.8777 25.0703 23.8777 26.7695V28.3142C23.8777 30.0134 22.4874 31.4037 20.7882 31.4037H11.5197C8.43026 31.4037 6.88551 28.6232 6.88551 28.6232C6.57657 28.3142 6.42209 27.6963 6.88551 27.3874C6.88551 27.3874 11.5197 23.5255 13.0645 23.5255H20.7882V23.68Z" fill="black"/>
</svg>
