<svg width="38" height="33" viewBox="0 0 38 33" fill="none" xmlns="http://www.w3.org/2000/svg">
<path d="M17.5558 3.70482C14.7849 4.01902 12.1568 5.10075 9.96761 6.82816L11.8624 8.72521C12.1677 9.05293 12.334 9.48639 12.3261 9.93426C12.3182 10.3821 12.1367 10.8095 11.82 11.1262C11.5033 11.4429 11.0759 11.6244 10.6281 11.6323C10.1802 11.6402 9.74673 11.4739 9.41901 11.1686L7.51504 9.2669C5.89685 11.2966 4.84399 13.718 4.46316 16.2858H8.33564C8.79414 16.2858 9.23386 16.4679 9.55807 16.7921C9.88228 17.1163 10.0644 17.556 10.0644 18.0145C10.0644 18.473 9.88228 18.9128 9.55807 19.237C9.23386 19.5612 8.79414 19.7433 8.33564 19.7433H4.35943C4.71832 23.4427 6.40908 26.8857 9.11705 29.4314C9.44366 29.7469 9.63303 30.1782 9.64425 30.6322C9.65546 31.0861 9.48762 31.5263 9.17698 31.8575C8.86635 32.1887 8.43787 32.3844 7.98413 32.4023C7.53039 32.4202 7.08783 32.2589 6.75207 31.9532C3.2023 28.627 0.844238 23.7218 0.844238 18.4594C0.844238 8.33566 9.11244 0.150442 19.2846 0.150442C29.4568 0.150442 37.725 8.33335 37.725 18.4594C37.7204 20.9859 37.2019 23.4851 36.2009 25.8049C35.1999 28.1246 33.7374 30.2165 31.9024 31.9532C31.5667 32.2589 31.1241 32.4202 30.6704 32.4023C30.2166 32.3844 29.7881 32.1887 29.4775 31.8575C29.1669 31.5263 28.999 31.0861 29.0103 30.6322C29.0215 30.1782 29.2108 29.7469 29.5374 29.4314C32.2266 26.8814 33.8894 23.4352 34.2121 19.7433H30.2336C29.7751 19.7433 29.3353 19.5612 29.0111 19.237C28.6869 18.9128 28.5048 18.473 28.5048 18.0145C28.5048 17.556 28.6869 17.1163 29.0111 16.7921C29.3353 16.4679 29.7751 16.2858 30.2336 16.2858H34.1061C33.1287 9.6795 27.7603 4.4724 21.0134 3.70482V6.48932C21.0134 6.94782 20.8312 7.38754 20.507 7.71175C20.1828 8.03596 19.7431 8.2181 19.2846 8.2181C18.8261 8.2181 18.3864 8.03596 18.0622 7.71175C17.738 7.38754 17.5558 6.94782 17.5558 6.48932V3.70482ZM27.2347 8.92575C27.4442 8.75939 27.705 8.67107 27.9724 8.67593C28.2399 8.68079 28.4973 8.77852 28.7006 8.95237C28.9039 9.12623 29.0403 9.36538 29.0866 9.62883C29.1329 9.89229 29.0861 10.1636 28.9543 10.3964L28.7007 10.8482C27.7738 12.485 26.841 14.1185 25.9024 15.7487C25.152 17.0532 24.3913 18.3518 23.6204 19.6442C23.3315 20.1305 23.0364 20.613 22.7353 21.0918C22.5048 21.4537 22.2789 21.7971 22.1129 21.9908C21.5175 22.6883 20.6693 23.1207 19.755 23.1929C18.8408 23.2651 17.9353 22.9711 17.2377 22.3757C16.5402 21.7803 16.1078 20.9321 16.0356 20.0178C15.9634 19.1036 16.2573 18.1981 16.8528 17.5005C17.0187 17.3069 17.3207 17.028 17.6434 16.7445C17.9892 16.4379 18.434 16.0622 18.9342 15.6404C19.9392 14.8013 21.1978 13.7733 22.4241 12.7821C23.8867 11.5989 25.3543 10.4218 26.8267 9.25076L27.2347 8.92806V8.92575Z" fill="#242426"/>
</svg>
