<svg xmlns="http://www.w3.org/2000/svg" width="51" height="30" viewBox="0 0 51 30" fill="none"><path d="M25.5506 17.5665C26.3675 17.5665 27.107 17.243 27.6368 16.7254C28.1666 16.2078 28.4978 15.4853 28.4978 14.6873C28.4978 13.8893 28.1666 13.1668 27.6368 12.6492C27.107 12.1316 26.3675 11.8081 25.5506 11.8081C24.7338 11.8081 23.9943 12.1316 23.4645 12.6492C22.9347 13.1668 22.6035 13.8893 22.6035 14.6873C22.6035 15.4853 22.9347 16.2078 23.4645 16.7254C23.9943 17.243 24.7338 17.5665 25.5506 17.5665ZM3.34231 19.0762C2.9339 18.5694 2.50343 17.9439 2.12814 17.34C1.8853 16.9626 1.6535 16.5744 1.42171 16.1862L1.39963 16.1538L1.35548 16.0784L1.32237 16.0137L1.28925 15.9597L1.25614 15.9058L1.22302 15.8519L1.18991 15.798L1.16783 15.7656L1.1568 15.7333L1.11264 15.647L1.09057 15.6147L1.03538 15.5176V15.5068V15.496L0.980189 15.3882V15.3774V15.3666C0.913961 15.248 0.858769 15.1294 0.792542 15C1.07953 14.4393 2.12814 12.4227 3.35335 10.9022L3.36438 10.9238C4.18119 9.85622 5.06423 8.84256 6.02453 7.90439C11.0137 3.01941 17.9234 0 25.5506 0C33.1779 0 40.0876 3.01941 45.0768 7.90439C46.0371 8.84256 46.9311 9.84544 47.7369 10.9238C48.068 11.3551 49.4257 13.1668 50.3088 14.9892L50.2977 15.0108C50.2315 15.1618 50.1211 15.3774 49.9776 15.6147C49.8452 15.8519 49.7127 16.0891 49.5802 16.3264L49.5692 16.3372L49.5582 16.348L49.4919 16.4558V16.4666L49.4368 16.5636L49.4257 16.5744L49.4147 16.596L49.3705 16.6715L49.3485 16.7146L49.3043 16.7901L49.2712 16.844L49.2602 16.8548L49.227 16.9087L49.1939 16.9518V16.9626L49.1718 17.0058L49.1387 17.0597L49.1056 17.1136C47.9687 18.9252 46.611 20.5967 45.0768 22.0956C40.0766 26.9806 33.1779 30 25.5506 30C17.9234 30 11.0247 26.9806 6.02453 22.0956C5.05319 21.1574 4.15912 20.1546 3.34231 19.0762ZM44.5911 16.6607H32.2065C31.8643 17.739 31.2683 18.7096 30.4736 19.486C29.2152 20.7153 27.4712 21.4809 25.5506 21.4809C23.63 21.4809 21.8861 20.7153 20.6277 19.486C19.3694 18.2567 18.5857 16.5528 18.5857 14.6765C18.5857 12.8001 19.3694 11.0963 20.6277 9.867C21.8861 8.63767 23.63 7.87204 25.5506 7.87204C27.4712 7.87204 29.2152 8.63767 30.4736 9.867C31.2683 10.6434 31.8754 11.6139 32.2065 12.6923H44.0834C43.5094 11.9806 42.9023 11.312 42.2511 10.6758C37.9683 6.49173 32.063 3.91445 25.5506 3.91445C19.0272 3.91445 13.1219 6.49173 8.85024 10.6758C7.51465 11.9698 6.34463 13.4256 5.36225 15.0108C6.34463 16.5852 7.51465 18.041 8.85024 19.3458C13.1219 23.5191 19.0272 26.1071 25.5506 26.1071C32.0741 26.1071 37.9794 23.5298 42.2511 19.3458C43.0899 18.5047 43.8736 17.6096 44.5911 16.6607Z" fill="url(#paint0_linear)"></path><defs><linearGradient id="paint0_linear" x1="0.791438" y1="15.0024" x2="50.3107" y2="15.0024" gradientUnits="userSpaceOnUse"><stop stop-color="#EB7B59"></stop><stop offset="1" stop-color="#F9CE32"></stop></linearGradient></defs></svg>